<?xml version="1.0" encoding="utf-8"?>
<!-- Generator: Adobe Illustrator 24.1.0, SVG Export Plug-In . SVG Version: 6.00 Build 0)  -->
<svg version="1.1" id="Layer_1" xmlns="http://www.w3.org/2000/svg" xmlns:xlink="http://www.w3.org/1999/xlink" x="0px" y="0px"
	 viewBox="0 0 951.4 159.2" style="enable-background:new 0 0 951.4 159.2;" xml:space="preserve">
<style type="text/css">
	.st0{fill:#FDFFFC;}
	.st1{fill:#FFE400;}
	.st2{fill:#B291EF;}
	.st3{fill:#FC6BE9;}
	.st4{fill:#D01131;}
	.st5{fill:#FF8E2A;}
	.st6{fill:#7FB817;}
	.st7{fill:#7E2131;}
	.st8{fill:#9C3BAC;}
	.st9{fill:#15AA98;}
	.st10{fill:#39BADD;}
	.st11{fill:#1B66FA;}
	.st12{fill:#7B68EE;}
	.st13{fill:#F2F2F2;}
</style>
<g>
	<g id="Line">
		<path class="st0" d="M99.7,1.6L83.3,62.9h30.8L110,78.2H63.8L84.3,1.6H99.7z"/>
		<path class="st0" d="M137.2,1.6h15.4L132,78.2h-15.4L137.2,1.6z"/>
		<path class="st0" d="M196.8,43.9l11.4-42.5h15.4l-21,78.3l-34.4-44l-11.4,42.5h-15.4l21-78.3L196.8,43.9z"/>
		<path class="st0" d="M279.3,1.4l-4.1,15.3h-30.8l-4.1,15.4h23.1l-4.1,15.3h-23.1L232,63h30.8l-4.1,15.3h-46.2l20.6-76.8H279.3z"/>
	</g>
	<g id="Distribution">
		<path class="st0" d="M297.4,43.1c11.6,0,19.5,4.6,24.1,10.9c4.8,6.6,5.8,15.4,2.9,26.2c-2.9,10.8-8.5,19.5-16.9,26.1
			c-9.2,7.2-19.2,10.8-29.9,10.8h-19.7l19.8-73.9L297.4,43.1L297.4,43.1z M293.4,57.8h-4.8l-11.9,44.4h5c13.3,0,24.4-8.8,28-22.2
			C313.2,66.8,306.7,57.8,293.4,57.8z"/>
		<path class="st0" d="M340.7,43.1h14.9L335.8,117h-14.9L340.7,43.1z"/>
		<path class="st0" d="M369.5,102.5c4.1,0,9.5-3.4,10.6-7.5c1.8-6.7-7-7.7-11.6-9.5c-8.2-3.1-14.2-10.5-11.5-20.5
			c3.3-12.5,16.1-22.5,28.6-22.5c11.4,0,18.5,8.4,17.1,19.4L387.1,65c1.1-4.1-1.4-7.5-5.5-7.5c-4.1,0-8.4,3.4-9.5,7.5
			c-1.8,6.7,6.2,8.4,10.9,10c8.6,2.7,14.9,9.8,12.2,20.1c-3.3,12.5-17.2,22.5-29.7,22.5c-11.4,0-19.5-8.4-18.3-19.4l15.6-3.1
			C361.8,99.2,365.3,102.6,369.5,102.5L369.5,102.5z"/>
		<path class="st0" d="M464.1,43.1l-3.9,14.7H442L426.1,117h-14.9L427,57.8h-18.2l3.9-14.7H464.1z"/>
		<path class="st0" d="M470.5,43.1h24.1c8.2,0,14.1,3.1,17.3,7.5c3.3,4.5,4.8,8.6,2.7,16.8l-0.5,1.9c-1.3,5-4.2,9.7-8.5,14.1
			c-3.6,3.6-6,5.2-10.7,6.8l10,26.8h-18.2l-12.5-32.7l-8.8,32.7h-14.9L470.5,43.1z M499.1,67.9c0.7-2.7,0.4-5.1-1-7.1
			c-1.4-1.9-4.8-2.9-8.4-2.9h-8.3l-5.5,20.4h5.7l0,0h5C492,78.3,497.6,73.5,499.1,67.9z"/>
		<path class="st0" d="M531.1,43.1H546L526.2,117h-14.9L531.1,43.1z"/>
		<path class="st0" d="M585.1,73.6c1.6,0.9,3.6,2.4,4.7,3.8c3.3,4.6,4.1,10,2.3,16.4c-1.7,6.4-5.4,11.9-11.1,16.4
			c-5.7,4.6-11.8,6.9-18.2,6.9h-27.5l19.8-73.9h15.5h5.1c5.7,0,10.1,2,13,6.1c2.8,4,3.5,8.7,2.1,14.1
			C590,66.9,587.1,71.1,585.1,73.6z M571.9,57.6h-5.8l-3.6,13.5c1.3-0.1,3.2-0.2,5.6-0.4c3.6-0.4,7.3-3,8.3-6.8
			C577.4,60.5,575.4,57.6,571.9,57.6z M577.6,93.8c1.3-4.9-1.6-8.8-6.1-9.1c-4.3-0.2-8.2,0-12.6,0l-4.8,17.9h2.9h9.7
			C571.5,102.6,576.4,98.6,577.6,93.8z"/>
		<path class="st0" d="M645,87.8l12-44.7h14.9l-12,44.8c-2.2,8.3-7,15.3-14.4,21.1c-7.4,5.8-15.2,8.7-23.4,8.7
			c-8.3,0-14.6-2.9-18.9-8.7c-4.3-5.8-5.3-12.9-3.1-21.1l12-44.8h15l-12,44.7c-2.2,8.1,2.8,14.9,11,14.9
			C634.1,102.7,642.8,95.8,645,87.8z"/>
		<path class="st0" d="M729.6,43.1l-3.9,14.7h-18.2L691.6,117h-14.9l15.9-59.2h-18.2l3.9-14.7H729.6z"/>
		<path class="st0" d="M736,43.1h14.9L731.1,117h-14.9L736,43.1z"/>
		<path class="st0" d="M818.5,53.6c5.4,7.4,6.7,16.2,3.9,26.6c-2.8,10.4-8.8,19.2-18.2,26.5c-9.3,7.3-19.1,10.9-29.4,10.9
			c-10.4,0-18.2-3.7-23.6-10.9c-5.4-7.3-6.7-16.2-3.9-26.5c2.8-10.3,8.8-19.2,18.1-26.6c9.3-7.4,19.2-11.1,29.5-11.1
			C805.3,42.5,813.1,46.2,818.5,53.6z M773.3,64.1c-5.6,4.5-9.2,9.8-10.9,15.9c-1.7,6.2-0.9,11.5,2.3,15.9c3.2,4.4,7.9,6.6,14.2,6.6
			c6.1,0,12-2.2,17.6-6.6c5.6-4.4,9.2-9.7,10.9-15.9c1.7-6.2,0.9-11.5-2.4-15.9c-3.2-4.4-7.9-6.6-14.1-6.6
			C784.7,57.5,778.8,59.7,773.3,64.1z"/>
		<path class="st0" d="M872.3,84l11-41h14.9l-20.3,75.6l-33.2-42.5l-11,41h-14.9l20.3-75.6L872.3,84z"/>
	</g>
	<g>
		<path class="st1" d="M58.2,37.2h-19c-4.7,0-7.5-3.8-6.2-8.5l5.1-19c1.3-4.7,6.1-8.5,10.8-8.5h19c4.7,0,7.5,3.8,6.2,8.5l-5.1,19
			C67.7,33.3,62.9,37.2,58.2,37.2z"/>
		<path class="st2" d="M457.2,37.2h-172c-4.7,0-7.5-3.8-6.2-8.5l5.1-19c1.3-4.7,6.1-8.5,10.8-8.5h172c4.7,0,7.5,3.8,6.2,8.5l-5.1,19
			C466.7,33.3,461.9,37.2,457.2,37.2z"/>
		<path class="st3" d="M722.2,37.2h-242c-4.7,0-7.5-3.8-6.2-8.5l5.1-19c1.3-4.7,6.1-8.5,10.8-8.5h242c4.7,0,7.5,3.8,6.2,8.5l-5.1,19
			C731.7,33.3,726.9,37.2,722.2,37.2z"/>
		<path class="st4" d="M935.2,37.2h-188c-4.7,0-7.5-3.8-6.2-8.5l5.1-19c1.3-4.7,6.1-8.5,10.8-8.5h188c4.7,0,7.5,3.8,6.2,8.5l-5.1,19
			C944.7,33.3,939.9,37.2,935.2,37.2z"/>
		<path class="st5" d="M47.2,78.2h-19c-4.7,0-7.5-3.8-6.2-8.5l5.1-19c1.3-4.7,6.1-8.5,10.8-8.5h19c4.7,0,7.5,3.8,6.2,8.5l-5.1,19
			C56.7,74.3,51.9,78.2,47.2,78.2z"/>
		<path class="st6" d="M239.5,118.2h-222c-4.7,0-7.5-3.8-6.2-8.5l5.1-19c1.3-4.7,6.1-8.5,10.8-8.5h222c4.7,0,7.5,3.8,6.2,8.5
			l-5.1,19C249,114.3,244.2,118.2,239.5,118.2z"/>
		<path class="st7" d="M924.2,78.2h-19c-4.7,0-7.5-3.8-6.2-8.5l5.1-19c1.3-4.7,6.1-8.5,10.8-8.5h19c4.7,0,7.5,3.8,6.2,8.5l-5.1,19
			C933.7,74.3,928.9,78.2,924.2,78.2z"/>
		<path class="st8" d="M913.5,118.2h-19c-4.7,0-7.5-3.8-6.2-8.5l5.1-19c1.3-4.7,6.1-8.5,10.8-8.5h19c4.7,0,7.5,3.8,6.2,8.5l-5.1,19
			C923,114.3,918.2,118.2,913.5,118.2z"/>
		<path class="st9" d="M149.5,159.2H6.5c-4.7,0-7.5-3.8-6.2-8.5l5.1-19c1.3-4.7,6.1-8.5,10.8-8.5h143c4.7,0,7.5,3.8,6.2,8.5l-5.1,19
			C159,155.3,154.2,159.2,149.5,159.2z"/>
		<path class="st10" d="M462.5,159.2h-286c-4.7,0-7.5-3.8-6.2-8.5l5.1-19c1.3-4.7,6.1-8.5,10.8-8.5h286c4.7,0,7.5,3.8,6.2,8.5
			l-5.1,19C472,155.3,467.2,159.2,462.5,159.2z"/>
		<path class="st11" d="M506.5,159.2h-19c-4.7,0-7.5-3.8-6.2-8.5l5.1-19c1.3-4.7,6.1-8.5,10.8-8.5h19c4.7,0,7.5,3.8,6.2,8.5l-5.1,19
			C516,155.3,511.2,159.2,506.5,159.2z"/>
		<path class="st12" d="M902.5,159.2h-370c-4.7,0-7.5-3.8-6.2-8.5l5.1-19c1.3-4.7,6.1-8.5,10.8-8.5h370c4.7,0,7.5,3.8,6.2,8.5
			l-5.1,19C912,155.3,907.2,159.2,902.5,159.2z"/>
	</g>
	<g id="Express">
		<path class="st13" d="M789.3,128.5l-1.7,3.4h-11.1h-1.2l-0.5,1.1l-2.8,5.5l-0.5,1.1h1.2h8l-1.7,3.4h-8.1h-1.2l-0.5,1.1l-2.8,5.5
			l-0.5,1.1h1.2h11.1l-1.7,3.4h-11.1h-5l12.8-25.5H789.3z"/>
		<path class="st13" d="M795.1,128.5l1,7.6l0.2,1.6l1.8-1.6l8.7-7.6h4.3l-13.8,12.1l-0.6,0.5l0.1,0.5l1.7,12.1h-4.3l-1.1-7.6
			l-0.2-1.6l-1.8,1.6l-8.8,7.7l-4.3,0l13.8-12.2l0.6-0.5l-0.1-0.5l-1.6-12.1H795.1z"/>
		<path class="st13" d="M804.7,146.7l4.8-9.6l4.3-8.6h5h4.6c1.3,0,2.4,0.2,3.3,0.6c0.9,0.4,1.6,1,2.2,1.9c0.5,0.8,0.8,1.8,0.8,2.8
			c0,1-0.4,2.1-1,3.3c-0.6,1.2-1.4,2.3-2.3,3.3c-1,1-2.1,1.9-3.5,2.7c-1.4,0.8-2.7,1.5-4.1,1.9c-1.3,0.4-2.7,0.6-4,0.6h-4.6h-1.2
			l-0.5,1.1l-3.6,7.2h-3.8L804.7,146.7z M810.7,142.3h1.2l4.6,0c0.8,0,1.6-0.1,2.4-0.4c0.8-0.2,1.6-0.6,2.5-1.1
			c0.8-0.5,1.5-1.1,2.1-1.7c0.6-0.6,1-1.2,1.4-2c0.4-0.7,0.6-1.4,0.5-2c0-0.6-0.1-1.1-0.4-1.7c-0.3-0.5-0.7-0.9-1.3-1.2
			c-0.5-0.3-1.2-0.4-2-0.4h-4.6h-1.2l-0.5,1.1l-2.1,4.1l-2.1,4.1L810.7,142.3z"/>
		<path class="st13" d="M835.6,128.5h8.8c1.4,0,2.6,0.2,3.7,0.7c1,0.4,1.7,1,2.3,1.8c0.5,0.9,0.8,1.7,0.8,2.5c0,0.8-0.3,1.8-0.9,3
			l-0.4,0.7c-0.4,0.9-1,1.7-1.6,2.4c-0.6,0.7-1.4,1.4-2.4,2.2c-0.8,0.6-1.5,1.1-2.1,1.3c-0.6,0.3-1.3,0.6-2.2,0.8l-1.6,0.5l0.2,1.1
			l1.8,8.3h-4.7l-2-8.9h-4.2l-4.4,8.9h-3.8L835.6,128.5z M838.4,141.6L838.4,141.6c0.8,0,1.5-0.1,2.2-0.3c0.6-0.2,1.3-0.6,2.1-1.1
			c0.8-0.5,1.5-1.1,2-1.6c0.5-0.5,0.9-1.2,1.3-1.9c0.3-0.7,0.5-1.3,0.6-1.8c0-0.5-0.1-1-0.4-1.5l0,0c-0.3-0.5-0.8-0.8-1.5-1.1
			c-0.7-0.2-1.5-0.4-2.4-0.4h-3.5h-1.2l-0.5,1.1l-3.8,7.6l-0.5,1.1h1.2l1.4,0h0.9H838.4z"/>
		<path class="st13" d="M873.4,128.5l-1.7,3.4h-11.1h-1.2l-0.5,1.1l-2.8,5.5l-0.5,1.1h1.2h8l-1.7,3.4h-8.1h-1.2l-0.5,1.1l-2.8,5.5
			l-0.5,1.1h1.2h11.1l-1.7,3.4h-11.1h-5l12.8-25.5H873.4z"/>
		<path class="st13" d="M874,150.3c0.7-0.2,1.3-0.5,1.9-0.8c0.6-0.3,1.2-0.7,1.7-1.2c0.5-0.5,0.9-1,1.2-1.5c0.2-0.5,0.3-0.9,0.3-1.3
			c0-0.4-0.1-0.7-0.3-1c-0.2-0.3-0.5-0.5-0.9-0.8c-0.4-0.2-0.8-0.4-1.2-0.6c-0.4-0.2-0.8-0.3-1.3-0.4c-1.1-0.3-2-0.7-2.7-1.2
			c-0.7-0.5-1.3-1.1-1.6-1.9c-0.2-0.5-0.3-1.1-0.2-1.8c0.1-0.7,0.3-1.4,0.7-2.1c0.5-1,1.2-1.9,2-2.8c0.9-0.9,1.9-1.7,2.9-2.3
			c1.1-0.7,2.2-1.2,3.4-1.6c1.2-0.4,2.4-0.6,3.5-0.6c1,0,1.9,0.2,2.6,0.5c0.8,0.3,1.4,0.7,1.8,1.3c0.7,1,1,2.1,0.7,3.5l-4.1,0.7
			c0.1-0.5-0.1-1-0.3-1.4c-0.5-0.8-1.3-1.1-2.5-1.1c-0.6,0-1.2,0.1-1.8,0.3c-0.6,0.2-1.2,0.5-1.8,0.8c-0.6,0.4-1.1,0.8-1.6,1.3
			c-0.5,0.5-0.8,1-1.1,1.5c-0.2,0.4-0.3,0.7-0.3,1.1c0,0.3,0,0.6,0.1,0.8c0.1,0.2,0.2,0.5,0.4,0.7c0.2,0.2,0.4,0.4,0.6,0.5
			c0.2,0.1,0.5,0.3,0.8,0.4c0.3,0.1,0.6,0.3,0.9,0.3c0.2,0.1,0.6,0.2,0.9,0.3c0.3,0.1,0.6,0.2,0.8,0.3c0.6,0.2,1.1,0.5,1.6,0.8
			c0.5,0.3,0.9,0.7,1.2,1.1c0.4,0.4,0.6,0.9,0.8,1.3c0.2,0.5,0.2,1,0.1,1.7c-0.1,0.6-0.3,1.2-0.6,1.9c-0.5,1-1.2,2-2.2,2.9
			c-0.9,0.9-2,1.7-3.1,2.3c-1.1,0.6-2.3,1.2-3.5,1.5c-1.2,0.4-2.4,0.6-3.5,0.6c-1.2,0-2.3-0.2-3.2-0.7c-0.9-0.4-1.6-1.1-2-1.9
			s-0.6-1.7-0.4-2.8l4.1-0.7c0,0.8,0.3,1.4,0.9,1.9c0.6,0.5,1.4,0.7,2.3,0.7C872.6,150.7,873.3,150.5,874,150.3z"/>
		<path class="st13" d="M892.4,150.3c0.7-0.2,1.3-0.5,1.9-0.8c0.6-0.3,1.2-0.7,1.7-1.2c0.5-0.5,0.9-1,1.2-1.5
			c0.2-0.5,0.3-0.9,0.3-1.3c0-0.4-0.1-0.7-0.3-1c-0.2-0.3-0.5-0.5-0.9-0.8c-0.4-0.2-0.8-0.4-1.2-0.6c-0.4-0.2-0.8-0.3-1.3-0.4
			c-1.1-0.3-2-0.7-2.7-1.2c-0.7-0.5-1.3-1.1-1.6-1.9c-0.2-0.5-0.3-1.1-0.2-1.8c0.1-0.7,0.3-1.4,0.7-2.1c0.5-1,1.2-1.9,2-2.8
			c0.9-0.9,1.9-1.7,2.9-2.3c1.1-0.7,2.2-1.2,3.4-1.6c1.2-0.4,2.4-0.6,3.5-0.6c1,0,1.9,0.2,2.6,0.5c0.8,0.3,1.4,0.7,1.8,1.3
			c0.7,1,1,2.1,0.7,3.5l-4.1,0.7c0.1-0.5-0.1-1-0.3-1.4c-0.5-0.8-1.3-1.1-2.5-1.1c-0.6,0-1.2,0.1-1.8,0.3c-0.6,0.2-1.2,0.5-1.8,0.8
			c-0.6,0.4-1.1,0.8-1.6,1.3c-0.5,0.5-0.8,1-1.1,1.5c-0.2,0.4-0.3,0.7-0.3,1.1c0,0.3,0,0.6,0.1,0.8c0.1,0.2,0.2,0.5,0.4,0.7
			c0.2,0.2,0.4,0.4,0.6,0.5c0.2,0.1,0.5,0.3,0.8,0.4c0.3,0.1,0.6,0.3,0.9,0.3c0.2,0.1,0.6,0.2,0.9,0.3c0.3,0.1,0.6,0.2,0.8,0.3
			c0.6,0.2,1.1,0.5,1.6,0.8s0.9,0.7,1.2,1.1c0.4,0.4,0.6,0.9,0.8,1.3c0.2,0.5,0.2,1,0.1,1.7c-0.1,0.6-0.3,1.2-0.6,1.9
			c-0.5,1-1.2,2-2.2,2.9c-0.9,0.9-2,1.7-3.1,2.3c-1.1,0.6-2.3,1.2-3.5,1.5c-1.2,0.4-2.4,0.6-3.5,0.6c-1.2,0-2.3-0.2-3.2-0.7
			c-0.9-0.4-1.6-1.1-2-1.9c-0.4-0.8-0.6-1.7-0.4-2.8l4.1-0.7c0,0.8,0.3,1.4,0.9,1.9c0.6,0.5,1.4,0.7,2.3,0.7
			C891.1,150.7,891.7,150.5,892.4,150.3z"/>
	</g>
</g>
</svg>
